# xmcd CD database file generated by libcdaudio 0.99.6
# 
# Track frame offsets:
#       150
#       20560
#       40892
#       63112
#       89247
#       114425
#       133337
#       160937
#       180752
#       201532
#       227765
#       244487
#       260487
#       279127
#       295997
#       316422
# 
# Disc length: 4557 seconds
# 
# Revision: 1
# Processed by: cddbd v1.4PL0 Copyright (c) Steve Scherf et al.
# Submitted via: libcdaudio 0.99.6
# 
DISCID=ec11cb10
DTITLE=Various Artist - Exteme Club Hits III
DYEAR=1900
DGENRE=
TTITLE0=Hotai - They Spy You
TTITLE1=Covenant - Go Film (hard version)
TTITLE2=Access Denied - The way it used to be
TTITLE3=VNV Nation - Rubicon
TTITLE4=Kalte Sterne - Rendicion
TTITLE5=Silke Bischoff - On the other side
TTITLE6=I-F - Space Invaders are smoking grass
TTITLE7=Out of Norm - Paradise
TTITLE8=Wolfsheim - The Sparrows and the nightingales
TTITLE9=Eyes of the midnight Jungle - Shadow Dance
TTITLE10=Sigue Sigue Sputnik - Love Missile F1-11
TTITLE11=Echopark - Suicide Commando
TTITLE12=Das Ich  - Schwanenschrei
TTITLE13=Sleeping Dogs Wake - Toys for Alice
TTITLE14=Front 242 - Welcome to Paradise
TTITLE15=The Invicible Spirit - Devil Dance
EXTD=
EXTT0=
EXTT1=
EXTT2=
EXTT3=
EXTT4=
EXTT5=
EXTT6=
EXTT7=
EXTT8=
EXTT9=
EXTT10=
EXTT11=
EXTT12=
EXTT13=
EXTT14=
EXTT15=
PLAYORDER=
